<?xml version="1.0" encoding="UTF-8" standalone="no"?>
<!-- Created with Inkscape (http://www.inkscape.org/) -->

<svg
   xmlns:dc="http://purl.org/dc/elements/1.1/"
   xmlns:cc="http://creativecommons.org/ns#"
   xmlns:rdf="http://www.w3.org/1999/02/22-rdf-syntax-ns#"
   xmlns:svg="http://www.w3.org/2000/svg"
   xmlns="http://www.w3.org/2000/svg"
   xmlns:xlink="http://www.w3.org/1999/xlink"
   xmlns:sodipodi="http://sodipodi.sourceforge.net/DTD/sodipodi-0.dtd"
   xmlns:inkscape="http://www.inkscape.org/namespaces/inkscape"
   width="400"
   height="200"
   id="svg2"
   version="1.1"
   inkscape:version="0.48.5 r10040"
   sodipodi:docname="sprites.svg"
   inkscape:export-filename="/home/nick/projects/pillpopper/src/dist/resources/images/sprites.png"
   inkscape:export-xdpi="90"
   inkscape:export-ydpi="90">
  <defs
     id="defs4">
    <filter
       inkscape:label="Stained glass"
       inkscape:menu="Bevels"
       inkscape:menu-tooltip="Illuminated stained glass effect"
       height="1.5"
       width="1.5"
       y="-0.25"
       x="-0.25"
       color-interpolation-filters="sRGB"
       id="filter3856">
      <feBlend
         result="result1"
         mode="screen"
         in2="SourceGraphic"
         id="feBlend3858" />
      <feGaussianBlur
         stdDeviation="7"
         result="result6"
         id="feGaussianBlur3860" />
      <feComposite
         operator="xor"
         in="result6"
         in2="result6"
         result="result7"
         id="feComposite3862" />
      <feComposite
         in2="result1"
         operator="atop"
         in="result6"
         result="result92"
         id="feComposite3864" />
      <feComposite
         result="result4"
         in="result7"
         operator="xor"
         in2="result92"
         id="feComposite3866" />
      <feGaussianBlur
         result="result3"
         stdDeviation="0.7"
         in="result4"
         id="feGaussianBlur3868" />
      <feSpecularLighting
         result="result5"
         specularExponent="50"
         specularConstant="1.5"
         surfaceScale="4"
         id="feSpecularLighting3870">
        <fePointLight
           z="20000"
           y="-8000"
           x="-5000"
           id="fePointLight3872" />
      </feSpecularLighting>
      <feComposite
         in="result3"
         k3="1"
         k2="1"
         operator="arithmetic"
         in2="SourceGraphic"
         result="result93"
         id="feComposite3874" />
      <feComposite
         in="result5"
         operator="atop"
         in2="result93"
         result="result94"
         id="feComposite3876" />
      <feBlend
         mode="multiply"
         in2="result94"
         id="feBlend3878" />
    </filter>
    <filter
       inkscape:label="Smart jelly"
       inkscape:menu="Bevels"
       inkscape:menu-tooltip="Same as Matte jelly but with more controls"
       height="1"
       width="1"
       y="0"
       x="0"
       color-interpolation-filters="sRGB"
       id="filter3906">
      <feBlend
         result="result3"
         mode="normal"
         in2="SourceGraphic"
         id="feBlend3908" />
      <feComposite
         result="result4"
         operator="arithmetic"
         k2="1"
         in2="result3"
         id="feComposite3910" />
      <feColorMatrix
         in="result4"
         result="result0"
         values="1 0 0 0 0 0 1 0 0 0 0 0 1 0 0 0 0 0 0.85 0 "
         id="feColorMatrix3912" />
      <feGaussianBlur
         stdDeviation="7"
         in="SourceAlpha"
         id="feGaussianBlur3914" />
      <feSpecularLighting
         result="result1"
         specularExponent="25"
         specularConstant="1"
         surfaceScale="5"
         id="feSpecularLighting3916">
        <feDistantLight
           azimuth="225"
           elevation="60"
           id="feDistantLight3918" />
      </feSpecularLighting>
      <feComposite
         in2="result0"
         k1="0.5"
         k2="1"
         operator="arithmetic"
         k3="0.5"
         id="feComposite3920" />
      <feComposite
         result="result2"
         in2="result0"
         operator="atop"
         id="feComposite3922" />
      <feComposite
         operator="in"
         in2="SourceGraphic"
         id="feComposite3924" />
    </filter>
    <filter
       inkscape:label="Smart jelly"
       inkscape:menu="Bevels"
       inkscape:menu-tooltip="Same as Matte jelly but with more controls"
       height="1"
       width="1"
       y="0"
       x="0"
       color-interpolation-filters="sRGB"
       id="filter4128">
      <feBlend
         result="result3"
         mode="normal"
         in2="SourceGraphic"
         id="feBlend4130" />
      <feComposite
         result="result4"
         operator="arithmetic"
         k2="1"
         in2="result3"
         id="feComposite4132" />
      <feColorMatrix
         in="result4"
         result="result0"
         values="1 0 0 0 0 0 1 0 0 0 0 0 1 0 0 0 0 0 0.85 0 "
         id="feColorMatrix4134" />
      <feGaussianBlur
         stdDeviation="7"
         in="SourceAlpha"
         id="feGaussianBlur4136" />
      <feSpecularLighting
         result="result1"
         specularExponent="25"
         specularConstant="1"
         surfaceScale="5"
         id="feSpecularLighting4138">
        <feDistantLight
           azimuth="225"
           elevation="60"
           id="feDistantLight4140" />
      </feSpecularLighting>
      <feComposite
         in2="result0"
         k1="0.5"
         k2="1"
         operator="arithmetic"
         k3="0.5"
         id="feComposite4142" />
      <feComposite
         result="result2"
         in2="result0"
         operator="atop"
         id="feComposite4144" />
      <feComposite
         operator="in"
         in2="SourceGraphic"
         id="feComposite4146" />
    </filter>
  </defs>
  <sodipodi:namedview
     id="base"
     pagecolor="#ffffff"
     bordercolor="#666666"
     borderopacity="1.0"
     inkscape:pageopacity="0.0"
     inkscape:pageshadow="2"
     inkscape:zoom="2.8284271"
     inkscape:cx="124.06306"
     inkscape:cy="96.603861"
     inkscape:document-units="px"
     inkscape:current-layer="layer1"
     showgrid="false"
     inkscape:window-width="1440"
     inkscape:window-height="854"
     inkscape:window-x="-4"
     inkscape:window-y="-4"
     inkscape:window-maximized="1">
    <inkscape:grid
       type="xygrid"
       id="grid2985"
       empspacing="5"
       visible="true"
       enabled="true"
       snapvisiblegridlinesonly="true" />
  </sodipodi:namedview>
  <metadata
     id="metadata7">
    <rdf:RDF>
      <cc:Work
         rdf:about="">
        <dc:format>image/svg+xml</dc:format>
        <dc:type
           rdf:resource="http://purl.org/dc/dcmitype/StillImage" />
        <dc:title></dc:title>
      </cc:Work>
    </rdf:RDF>
  </metadata>
  <g
     inkscape:label="Layer 1"
     inkscape:groupmode="layer"
     id="layer1"
     transform="translate(0,-852.36218)">
    <g
       id="g4441"
       style="fill:#000000;fill-opacity:1"
       transform="translate(-291,754)">
      <path
         style="fill:#000000;fill-opacity:1;stroke:none"
         d="m 391,13.36218 c 3.75,0 11,0 15,0 8,1 15,7 15,15 0,5 0,11.25 0,15 0,0 -15,0 -25,0 0,-5 -2,-5 -5,-5 0,-10 0,-16.666667 0,-25 z"
         id="rect4443"
         inkscape:connector-curvature="0"
         sodipodi:nodetypes="ccccccc" />
    </g>
    <g
       id="g4390"
       transform="translate(-50,721)">
      <path
         style="fill:#3300cb;fill-opacity:1;stroke:none"
         d="m 225,47.362183 c 5,0 11,-3e-6 15,-3e-6 10,0 20,9 20,19 0,4 0,11.000003 0,16.000003 -2,0 -5,0 -5,0 0,-4 0,-12.000003 0,-16.000003 0,-6 -9,-14 -15,-14 -4,0 -11,3e-6 -15,3e-6 0,0 0,-2 0,-5 z"
         id="rect4392"
         inkscape:connector-curvature="0"
         sodipodi:nodetypes="ccccccccc" />
      <path
         style="fill:none;stroke:#ffffff;stroke-width:2;stroke-linecap:butt;stroke-linejoin:miter;stroke-miterlimit:4;stroke-opacity:1;stroke-dasharray:none"
         d="m 225,47.362183 c 5,0 11,-3e-6 15,-3e-6 10,0 20,9 20,19 0,4 0,11.000003 0,16.000003"
         id="path4394"
         inkscape:connector-curvature="0"
         sodipodi:nodetypes="cccc" />
      <path
         style="fill:none;stroke:#ffffff;stroke-width:2;stroke-linecap:butt;stroke-linejoin:miter;stroke-miterlimit:4;stroke-opacity:1;stroke-dasharray:none"
         d="m 225,52.362183 c 4,0 11,-3e-6 15,-3e-6 7,0 15,7 15,14 0,4 0,12.000003 0,16.000003"
         id="path4396"
         inkscape:connector-curvature="0"
         sodipodi:nodetypes="cccc" />
    </g>
    <g
       id="g4314"
       style="fill:#000000;fill-opacity:1"
       transform="translate(-216,760)">
      <rect
         style="fill:#000000;fill-opacity:1;stroke:none"
         id="rect3961"
         width="40"
         height="30"
         x="270"
         y="7.3621826"
         rx="0"
         ry="0" />
    </g>
    <g
       transform="translate(-90.000003,854.99998)"
       id="g4032">
      <use
         x="0"
         y="0"
         xlink:href="#g4046"
         id="use4050-5"
         transform="translate(130,-754.99998)"
         width="1"
         height="1" />
      <use
         x="0"
         y="0"
         xlink:href="#g4314"
         id="use4317"
         transform="translate(86,-760)"
         width="1"
         height="1" />
      <use
         x="0"
         y="0"
         xlink:href="#g4337"
         id="use4340"
         transform="translate(11,-740)"
         width="1"
         height="1" />
      <use
         x="0"
         y="0"
         xlink:href="#g4093"
         id="use4096"
         transform="translate(10,-760)"
         width="744.09448"
         height="1052.3622" />
      <use
         height="1"
         width="1"
         transform="translate(36,-755)"
         id="use4136"
         xlink:href="#g4088"
         y="0"
         x="0" />
      <use
         x="0"
         y="0"
         xlink:href="#g4088"
         id="use4138"
         transform="matrix(-1,0,0,1,284,-755)"
         width="1"
         height="1" />
    </g>
    <g
       id="g4046"
       transform="translate(-176,760)"
       style="fill:#a1ffab;fill-opacity:0;stroke:#000000;stroke-opacity:1;opacity:1">
      <rect
         style="fill:#a1ffab;fill-opacity:0;stroke:#000000;stroke-width:0;stroke-linecap:square;stroke-linejoin:bevel;stroke-miterlimit:4;stroke-opacity:1;stroke-dasharray:none"
         id="rect3855"
         width="40"
         height="40"
         x="186"
         y="-2.6378191"
         rx="0"
         ry="0" />
      <path
         d="m 210,22.362183 c 0,2.761423 -2.23858,5 -5,5 -2.76142,0 -5,-2.238577 -5,-5 0,-2.761424 2.23858,-5 5,-5 2.76142,0 5,2.238576 5,5 z"
         sodipodi:ry="5"
         sodipodi:rx="5"
         sodipodi:cy="22.362183"
         sodipodi:cx="205"
         id="path4044"
         style="fill:#a1ffab;fill-opacity:0;stroke:#000000;stroke-width:1;stroke-linecap:square;stroke-linejoin:bevel;stroke-miterlimit:4;stroke-opacity:1;stroke-dasharray:none"
         sodipodi:type="arc"
         transform="translate(1,-5.0000026)" />
    </g>
    <g
       id="g4088"
       transform="translate(-76,740)">
      <path
         style="fill:#3300cb;fill-opacity:1;stroke:none"
         d="m 215,57.362183 c 0,-3 3,-5 5,-5 0,-3 0,-2 0,-5 -5,0 -10,5 -10,10 3,0 2,10e-7 5,0 z"
         id="path4189"
         inkscape:connector-curvature="0"
         sodipodi:nodetypes="ccccc" />
      <path
         sodipodi:nodetypes="cc"
         inkscape:connector-curvature="0"
         id="path4084"
         d="m 215,57.362183 c -0.0574,-3 2.09714,-5 5,-5"
         style="fill:none;stroke:#ffffff;stroke-width:2;stroke-linecap:butt;stroke-linejoin:miter;stroke-opacity:1;stroke-miterlimit:4;stroke-dasharray:none" />
      <path
         style="fill:none;stroke:#ffffff;stroke-width:2;stroke-linecap:butt;stroke-linejoin:miter;stroke-opacity:1;stroke-miterlimit:4;stroke-dasharray:none"
         d="m 210,57.362183 c 0,-5 5,-10 10,-10"
         id="path4158"
         inkscape:connector-curvature="0"
         sodipodi:nodetypes="cc" />
    </g>
    <g
       id="g4093"
       transform="translate(-95,720)">
      <rect
         style="fill:#3300cb;fill-opacity:1;stroke:none"
         id="rect4227"
         width="40"
         height="5"
         x="225"
         y="47.362183"
         rx="0"
         ry="5" />
      <path
         inkscape:connector-curvature="0"
         id="path4091"
         d="m 225,47.362183 40,0"
         style="fill:none;stroke:#ffffff;stroke-width:2;stroke-linecap:butt;stroke-linejoin:bevel;stroke-miterlimit:4;stroke-opacity:1;stroke-dasharray:none" />
      <path
         inkscape:connector-curvature="0"
         id="path4091-2"
         d="m 225,52.362183 40,0"
         style="fill:none;stroke:#ffffff;stroke-width:2;stroke-linecap:butt;stroke-linejoin:miter;stroke-miterlimit:4;stroke-opacity:1;stroke-dasharray:none" />
    </g>
    <path
       style="fill:none;stroke:#000000;stroke-width:1px;stroke-linecap:butt;stroke-linejoin:miter;stroke-opacity:1"
       d="M 69.25,832.11219 z"
       id="path4185"
       inkscape:connector-curvature="0" />
    <g
       id="g4337"
       transform="translate(-141,740)"
       style="fill:#000000;fill-opacity:1">
      <rect
         ry="0"
         rx="0"
         y="37.362183"
         x="275"
         height="5"
         width="30"
         id="rect4312"
         style="fill:#000000;fill-opacity:1;stroke:none" />
    </g>
    <g
       id="g4360"
       transform="translate(-46,855)">
      <use
         height="1"
         width="1"
         transform="translate(131,-755)"
         id="use4364"
         xlink:href="#g4046"
         y="0"
         x="0" />
      <use
         height="1"
         width="1"
         transform="translate(87,-760)"
         id="use4362"
         xlink:href="#g4314"
         y="0"
         x="0" />
      <use
         height="1052.3622"
         width="744.09448"
         transform="translate(11,-760)"
         id="use4368"
         xlink:href="#g4093"
         y="0"
         x="0" />
      <use
         x="0"
         y="0"
         xlink:href="#g4093"
         id="use4374"
         transform="matrix(1,0,0,-1,11,804.72436)"
         width="744.09448"
         height="1052.3622" />
    </g>
    <g
       id="g4376"
       transform="translate(44.999997,854.99998)">
      <use
         height="1"
         width="1"
         transform="translate(130,-754.99998)"
         id="use4380"
         xlink:href="#g4046"
         y="0"
         x="0" />
      <use
         x="0"
         y="0"
         xlink:href="#g4441"
         id="use4446"
         transform="translate(40.000003,-754.99998)"
         width="1"
         height="1" />
      <use
         height="1"
         width="1"
         transform="matrix(-1,0,0,1,284,-755)"
         id="use4388"
         xlink:href="#g4088"
         y="0"
         x="0" />
      <use
         x="0"
         y="0"
         xlink:href="#g4390"
         id="use4421"
         transform="translate(-35,-761)"
         width="1"
         height="1" />
    </g>
    <use
       x="0"
       y="0"
       xlink:href="#g4376"
       id="use4476"
       transform="matrix(-1,0,0,1,365,0)"
       width="744.09448"
       height="1052.3622" />
    <use
       x="0"
       y="0"
       xlink:href="#g4376"
       id="use4478"
       transform="matrix(1,0,0,-1,0,1799.7244)"
       width="744.09448"
       height="1052.3622" />
    <use
       height="1052.3622"
       width="744.09448"
       transform="matrix(-1,0,0,-1,365,1799.7244)"
       id="use4480"
       xlink:href="#g4376"
       y="0"
       x="0" />
    <use
       x="0"
       y="0"
       xlink:href="#g4032"
       id="use4482"
       transform="matrix(-1,0,0,-1,94.999994,1799.7244)"
       width="744.09448"
       height="1052.3622" />
    <use
       x="0"
       y="0"
       xlink:href="#g4360"
       id="use4484"
       transform="matrix(0,1,-1,0,992.3622,808.36216)"
       width="744.09448"
       height="1052.3622" />
    <use
       x="0"
       y="0"
       xlink:href="#g4032"
       id="use4486"
       transform="matrix(0,-1,1,0,-852.36216,947.36218)"
       width="744.09448"
       height="1052.3622" />
    <use
       height="1052.3622"
       width="744.09448"
       transform="matrix(0,-1,-1,0,947.36218,992.36218)"
       id="use4488"
       xlink:href="#g4032"
       y="0"
       x="0" />
    <g
       id="g4543"
       transform="translate(-150,769.99998)">
      <use
         x="0"
         y="0"
         xlink:href="#g4046"
         id="use4617"
         transform="translate(415,-669.99998)"
         width="1"
         height="1" />
      <path
         style="fill:#3300cb;fill-opacity:1;stroke:none"
         d="m 425,122.36218 c 0,0 15,0 25,0 5,0 10,-5 10,-10 0,-5 0,-10 0,-10 0,-5 -5,-10 -10,-10 l -25,3e-6 z"
         id="path4537"
         inkscape:connector-curvature="0"
         sodipodi:nodetypes="ccccccc" />
      <path
         sodipodi:nodetypes="cccccc"
         inkscape:connector-curvature="0"
         id="path4535"
         d="m 425,122.36218 c 0,0 15,0 25,0 5,0 10,-5 10,-10 0,-5 0,-10 0,-10 0,-4.999997 -5,-9.999997 -10,-9.999997 l -25,3e-6"
         style="fill:none;stroke:#ffffff;stroke-width:2;stroke-linecap:butt;stroke-linejoin:miter;stroke-opacity:1;stroke-miterlimit:4;stroke-dasharray:none" />
      <path
         sodipodi:nodetypes="cssccc"
         inkscape:connector-curvature="0"
         id="path4539"
         d="m 425,97.362183 c 0,0 15,10e-7 25,0 3,0 5,2 5,4.999997 0,2 0,10 0,10 0,3 -2,5 -5,5 l -25,0"
         style="fill:none;stroke:#ffffff;stroke-width:1px;stroke-linecap:butt;stroke-linejoin:miter;stroke-opacity:1" />
      <path
         style="fill:#000000;fill-opacity:1;stroke:#ffffff;stroke-width:2;stroke-linecap:butt;stroke-linejoin:miter;stroke-opacity:1;stroke-miterlimit:4;stroke-dasharray:none"
         d="m 425,97.362183 c 0,0 15,10e-7 25,0 3,0 5,2 5,4.999997 0,2 0,10 0,10 0,3 -2,5 -5,5 l -25,0"
         id="path4541"
         inkscape:connector-curvature="0"
         sodipodi:nodetypes="cssccc" />
    </g>
    <use
       x="0"
       y="0"
       xlink:href="#g4543"
       id="use4549"
       transform="matrix(0,-1,1,0,-627.36216,1172.3622)"
       width="744.09448"
       height="1052.3622" />
    <use
       height="1052.3622"
       width="744.09448"
       transform="matrix(-1,0,0,-1,545,1799.7244)"
       id="use4551"
       xlink:href="#g4543"
       y="0"
       x="0" />
    <use
       x="0"
       y="0"
       xlink:href="#g4543"
       id="use4553"
       transform="matrix(0,1,-1,0,1172.3622,627.36216)"
       width="744.09448"
       height="1052.3622" />
    <use
       height="1052.3622"
       width="744.09448"
       transform="matrix(0,1,-1,0,1031.3622,1158.3622)"
       id="use4555"
       xlink:href="#g4360"
       y="0"
       x="0" />
    <use
       x="0"
       y="0"
       xlink:href="#g4360"
       id="use4557"
       transform="matrix(0,1,-1,0,1031.3622,1198.3622)"
       width="744.09448"
       height="1052.3622" />
    <use
       height="1052.3622"
       width="744.09448"
       transform="matrix(0,-1,1,0,-723.36215,1422.3622)"
       id="use4559"
       xlink:href="#g4032"
       y="0"
       x="0" />
    <g
       transform="translate(34.000003,1330)"
       id="g4575">
      <use
         x="0"
         y="0"
         xlink:href="#g4046"
         id="use4577"
         transform="translate(131,-760)"
         width="1"
         height="1" />
      <use
         x="0"
         y="0"
         xlink:href="#g4314"
         id="use4579"
         transform="translate(86,-760)"
         width="1"
         height="1" />
      <use
         x="0"
         y="0"
         xlink:href="#g4093"
         id="use4581"
         transform="translate(10,-760)"
         width="744.09448"
         height="1052.3622" />
      <use
         height="1052.3622"
         width="744.09448"
         transform="matrix(1,0,0,-1,10,804.72436)"
         id="use4583"
         xlink:href="#g4093"
         y="0"
         x="0" />
    </g>
    <use
       x="0"
       y="0"
       xlink:href="#g4032"
       id="use4585"
       transform="matrix(0,-1,-1,0,1191.3622,1422.3622)"
       width="744.09448"
       height="1052.3622" />
    <g
       id="g4587"
       transform="translate(74.000003,1330)">
      <use
         height="1"
         width="1"
         transform="translate(131,-760)"
         id="use4589"
         xlink:href="#g4046"
         y="0"
         x="0" />
      <use
         height="1"
         width="1"
         transform="translate(86,-760)"
         id="use4591"
         xlink:href="#g4314"
         y="0"
         x="0" />
      <use
         height="1052.3622"
         width="744.09448"
         transform="translate(10,-760)"
         id="use4593"
         xlink:href="#g4093"
         y="0"
         x="0" />
      <use
         x="0"
         y="0"
         xlink:href="#g4093"
         id="use4595"
         transform="matrix(1,0,0,-1,10,804.72436)"
         width="744.09448"
         height="1052.3622" />
    </g>
    <use
       height="1052.3622"
       width="744.09448"
       transform="matrix(0,1,-1,0,1111.3622,977.3622)"
       id="use4597"
       xlink:href="#g4543"
       y="0"
       x="0" />
    <use
       height="1052.3622"
       width="744.09448"
       transform="matrix(0,-1,1,0,-563.36216,1607.3622)"
       id="use4601"
       xlink:href="#g4543"
       y="0"
       x="0" />
    <use
       height="1052.3622"
       width="744.09448"
       transform="matrix(0,1,-1,0,1242.8622,937.86218)"
       id="use4603"
       xlink:href="#g4543"
       y="0"
       x="0" />
    <use
       height="1052.3622"
       width="744.09448"
       transform="matrix(0,1,-1,0,1111.3622,1118.3622)"
       id="use4605"
       xlink:href="#g4360"
       y="0"
       x="0" />
    <g
       transform="translate(114,1330)"
       id="g4607">
      <use
         x="0"
         y="0"
         xlink:href="#g4046"
         id="use4609"
         transform="translate(131,-760)"
         width="1"
         height="1" />
      <use
         x="0"
         y="0"
         xlink:href="#g4314"
         id="use4611"
         transform="translate(86,-760)"
         width="1"
         height="1" />
      <use
         x="0"
         y="0"
         xlink:href="#g4093"
         id="use4613"
         transform="translate(10,-760)"
         width="744.09448"
         height="1052.3622" />
      <use
         height="1052.3622"
         width="744.09448"
         transform="matrix(1,0,0,-1,10,804.72436)"
         id="use4615"
         xlink:href="#g4093"
         y="0"
         x="0" />
    </g>
    <use
       x="0"
       y="0"
       xlink:href="#g4360"
       id="use4637"
       transform="matrix(0,1,-1,0,1031.3622,1118.3622)"
       width="744.09448"
       height="1052.3622" />
    <use
       height="1052.3622"
       width="744.09448"
       transform="matrix(0,-1,1,0,-723.36216,1182.3622)"
       id="use4639"
       xlink:href="#g4032"
       y="0"
       x="0" />
    <use
       height="1052.3622"
       width="744.09448"
       transform="matrix(0,1,-1,0,1031.3622,1078.3622)"
       id="use4641"
       xlink:href="#g4360"
       y="0"
       x="0" />
    <use
       height="1052.3622"
       width="744.09448"
       transform="matrix(0,-1,1,0,-643.36215,1487.3622)"
       id="use4643"
       xlink:href="#g4543"
       y="0"
       x="0" />
    <g
       transform="translate(34,1090)"
       id="g4645">
      <use
         x="0"
         y="0"
         xlink:href="#g4046"
         id="use4647"
         transform="translate(131,-760)"
         width="1"
         height="1" />
      <use
         x="0"
         y="0"
         xlink:href="#g4314"
         id="use4649"
         transform="translate(86,-760)"
         width="1"
         height="1" />
      <use
         x="0"
         y="0"
         xlink:href="#g4093"
         id="use4651"
         transform="translate(10,-760)"
         width="744.09448"
         height="1052.3622" />
      <use
         height="1052.3622"
         width="744.09448"
         transform="matrix(1,0,0,-1,10,804.72436)"
         id="use4653"
         xlink:href="#g4093"
         y="0"
         x="0" />
    </g>
    <g
       id="g4655"
       transform="translate(74,1090)">
      <use
         height="1"
         width="1"
         transform="translate(131,-760)"
         id="use4657"
         xlink:href="#g4046"
         y="0"
         x="0" />
      <use
         height="1"
         width="1"
         transform="translate(86,-760)"
         id="use4659"
         xlink:href="#g4314"
         y="0"
         x="0" />
      <use
         height="1052.3622"
         width="744.09448"
         transform="translate(10,-760)"
         id="use4661"
         xlink:href="#g4093"
         y="0"
         x="0" />
      <use
         x="0"
         y="0"
         xlink:href="#g4093"
         id="use4663"
         transform="matrix(1,0,0,-1,10,804.72436)"
         width="744.09448"
         height="1052.3622" />
    </g>
    <use
       x="0"
       y="0"
       xlink:href="#g4360"
       id="use4665"
       transform="matrix(0,1,-1,0,1031.3622,1038.3622)"
       width="744.09448"
       height="1052.3622" />
    <g
       transform="translate(114,1090)"
       id="g4667">
      <use
         x="0"
         y="0"
         xlink:href="#g4046"
         id="use4669"
         transform="translate(131,-760)"
         width="1"
         height="1" />
      <use
         x="0"
         y="0"
         xlink:href="#g4314"
         id="use4671"
         transform="translate(86,-760)"
         width="1"
         height="1" />
      <use
         x="0"
         y="0"
         xlink:href="#g4093"
         id="use4673"
         transform="translate(10,-760)"
         width="744.09448"
         height="1052.3622" />
      <use
         height="1052.3622"
         width="744.09448"
         transform="matrix(1,0,0,-1,10,804.72436)"
         id="use4675"
         xlink:href="#g4093"
         y="0"
         x="0" />
    </g>
    <use
       x="0"
       y="0"
       xlink:href="#g4032"
       id="use4677"
       transform="matrix(0,-1,-1,0,1191.3622,1182.3622)"
       width="744.09448"
       height="1052.3622" />
    <use
       height="1052.3622"
       width="744.09448"
       transform="matrix(0,1,-1,0,1191.3622,1038.3622)"
       id="use4679"
       xlink:href="#g4360"
       y="0"
       x="0" />
    <use
       x="0"
       y="0"
       xlink:href="#g4360"
       id="use4681"
       transform="matrix(0,1,-1,0,1191.3622,1073.3622)"
       width="744.09448"
       height="1052.3622" />
    <rect
       style="fill:#1c13dd;fill-opacity:1;stroke:none;filter:url(#filter3856)"
       id="rect3854"
       width="34.485664"
       x="831.01147"
       y="224.73459"
       transform="matrix(0.23069831,0.33595058,-0.23389862,0.33373033,-95.418799,597.4951)"
       height="34.362663" />
    <path
       sodipodi:type="arc"
       style="fill:#faff00;fill-opacity:1;stroke:none;filter:url(#filter4128)"
       id="path3880"
       sodipodi:cx="334.625"
       sodipodi:cy="51.875"
       sodipodi:rx="3.7222719"
       sodipodi:ry="3.7222719"
       d="m 338.34727,51.875 a 3.7222719,3.7222719 0 1 1 -7.44454,0 3.7222719,3.7222719 0 1 1 7.44454,0 z"
       transform="matrix(2.1397987,0,0,2.1397987,-701.19418,852.27855)" />
    <g
       id="g3905"
       transform="translate(-79.2758,-2.14198)">
      <path
         inkscape:connector-curvature="0"
         id="path3123"
         d="m 140,967.36218 c 4.0785,-2.9207 5.12278,-9.03497 10.47377,-10.44061 3.88078,-2.55016 7.54847,2.17097 11.15524,0.50683 2.75236,-2.59542 7.06594,-2.74243 10.17486,-0.68019 3.11717,2.90035 6.57908,6.81803 6.4468,11.34885 -1.50478,4.64148 -6.39155,6.87898 -9.99755,9.71473 -4.62878,2.68062 -10.67428,1.90032 -14.80578,-1.35428 -4.22148,-1.70955 -6.55859,-6.48428 -11.12279,-7.25293 -0.97491,-0.2648 -1.96174,-0.83968 -2.32455,-1.8424 z"
         style="fill:#c00c0c;fill-opacity:1;stroke:#000000;stroke-width:1px;stroke-linecap:butt;stroke-linejoin:miter;stroke-opacity:1" />
      <path
         transform="translate(0,852.36218)"
         inkscape:connector-curvature="0"
         id="path3135"
         d="m 150,115 c 0.32243,-0.48127 0.60752,-0.98977 0.9673,-1.4438 0.0366,-0.0462 0.11785,0 0.17678,0 0.11785,0 0.2357,0 0.35355,0 0.17678,0 0.35883,0.0429 0.53033,0 0.12783,-0.032 0.22855,-0.13511 0.35355,-0.17678 0.17008,-0.0567 0.52214,0.0462 0.70711,0 0.18077,-0.0452 0.34761,-0.14023 0.53033,-0.17678 0.2833,-0.0567 0.60059,0.0567 0.88388,0 0.12921,-0.0258 0.23571,-0.11785 0.35356,-0.17677 0.17677,-0.0589 0.34652,-0.14615 0.53033,-0.17678 1.34856,0 -0.13945,0.0791 0.88388,-0.17678 0.22866,-0.0572 0.47844,0.0572 0.70711,0 0.12782,-0.032 0.22572,-0.14482 0.35355,-0.17677 0.11433,-0.0286 0.23922,0.0286 0.35355,0 0.12783,-0.032 0.22573,-0.14482 0.35356,-0.17678 0.28583,-0.0715 0.59497,0.0578 0.88388,0 0.1292,-0.0258 0.22855,-0.13511 0.35355,-0.17678 0.0997,-0.0332 0.41417,0 0.53033,0 0.41248,0 0.82496,0 1.23744,0 0.70711,0 1.41421,0 2.12132,0 0.29463,0 0.58926,0 0.88388,0 0.11786,0 0.23923,-0.0286 0.35356,0 0.12783,0.032 0.2357,0.11785 0.35355,0.17678 0.17678,0 0.35699,-0.0347 0.53033,0 0.1292,0.0258 0.23122,0.12784 0.35355,0.17678 0.17302,0.0692 0.34761,0.14023 0.53034,0.17677 0.11556,0.0231 0.2357,0 0.35355,0 0.17678,0 0.35355,0 0.53033,0 0.11785,0 0.2357,0 0.35355,0 0.0589,0 0.12407,-0.0263 0.17678,0 0.0745,0.0373 0.0977,0.15043 0.17678,0.17678 0.1677,0.0559 0.36262,-0.0559 0.53033,0 0.125,0.0417 0.22855,0.13511 0.35355,0.17678 0.0559,0.0186 0.12087,-0.0186 0.17678,0 0.25,0.0833 0.4714,0.2357 0.7071,0.35355 0.11785,0.0589 0.22856,0.13511 0.35356,0.17678 0.23245,0.0775 0.35355,-0.14683 0.35355,0.35355 0,0.41457 -0.0417,-0.0833 0.17678,0.35355 0.0263,0.0527 0,0.11785 0,0.17678 0,0.0589 0,0.11785 0,0.17678 0,0.0589 0.0527,0.15042 0,0.17677 -0.10541,0.0527 -0.23571,0 -0.35356,0 -0.41248,0 -0.82496,0 -1.23743,0 -1.06066,0 -2.12132,0 -3.18199,0 -3.29983,0 -6.59966,0 -9.89949,0 -1.06066,0 -2.12132,0 -3.18198,0 -0.41248,0 -0.82496,0 -1.23744,0 -0.1609,0 -0.37339,-0.0335 -0.53033,0 -0.26634,0.0568 -0.52701,0.13758 -0.79052,0.20637 z"
         style="fill:#2e2424;fill-opacity:1;stroke:#000000;stroke-width:1px;stroke-linecap:butt;stroke-linejoin:miter;stroke-opacity:1" />
    </g>
    <g
       id="g3921"
       transform="matrix(1.2575463,0,0,1.2575463,-30.720362,-248.66149)">
      <path
         inkscape:connector-curvature="0"
         id="path3911"
         d="m 107.5,975.36218 c 0,-0.16667 -0.16667,-0.5 0,-0.5 0.16667,0 0,0.66667 0,0.5 0,-0.79167 0,-1.58333 0,-2.375 0,-0.41667 0,-0.83333 0,-1.25 0,-0.125 -0.0155,-0.25097 0,-0.375 0.12597,-1.00777 0.14821,-0.25529 0.25,-1.375 0,-1.43537 -0.0505,0.1037 0.125,-1.125 0.0177,-0.12374 -0.0206,-0.2517 0,-0.375 0.0217,-0.12997 0.10334,-0.24503 0.125,-0.375 0.0206,-0.1233 -0.0206,-0.2517 0,-0.375 0.0217,-0.12997 0.10637,-0.24456 0.125,-0.375 0.0236,-0.16499 -0.0236,-0.33501 0,-0.5 0.0186,-0.13044 0.093,-0.24717 0.125,-0.375 0.0515,-0.20612 0.0833,-0.41667 0.125,-0.625 0.16657,-0.83286 0.34807,-1.66437 0.5,-2.5 0.20433,-1.12378 0.0289,-0.36562 0.25,-1.25 0.0417,-0.16667 0.0707,-0.33702 0.125,-0.5 0.67185,-2.01554 -0.11872,0.7249 0.375,-1.25 0.032,-0.12783 0.0833,-0.25 0.125,-0.375 0.0833,-0.16667 0.19881,-0.32083 0.25,-0.5 0.0343,-0.12019 -0.0395,-0.25642 0,-0.375 0.0475,-0.14252 0.19421,-0.23551 0.25,-0.375 0.2706,-0.6765 -0.33981,0.19721 0.125,-0.5 0.0327,-0.049 0.10637,-0.0691 0.125,-0.125 0.0263,-0.0791 -0.0373,-0.17547 0,-0.25 0.0527,-0.10541 0.17638,-0.15797 0.25,-0.25 0.1877,-0.23462 0.30765,-0.51918 0.5,-0.75 0.11317,-0.1358 0.26183,-0.2392 0.375,-0.375 0.0962,-0.11541 0.15615,-0.25769 0.25,-0.375 0.0736,-0.092 0.17929,-0.15572 0.25,-0.25 0.0559,-0.0745 0.0591,-0.18412 0.125,-0.25 0.0659,-0.0659 0.17547,-0.0691 0.25,-0.125 0.15403,-0.11552 0.34087,-0.39391 0.5,-0.5 0.0775,-0.0517 0.18412,-0.0591 0.25,-0.125 0.0659,-0.0659 0.0591,-0.18412 0.125,-0.25 0.008,-0.008 0.47672,-0.23448 0.5,-0.25 0.049,-0.0327 0.0723,-0.0987 0.125,-0.125 0.0373,-0.0186 0.0833,0 0.125,0 0.0833,-0.0417 0.17248,-0.0733 0.25,-0.125 0.049,-0.0327 0.0779,-0.0897 0.125,-0.125 0.12019,-0.0901 0.25,-0.16667 0.375,-0.25 0.125,-0.0833 0.24063,-0.18282 0.375,-0.25 0.27691,-0.13846 1.22199,-0.34973 1.5,-0.375 0.24897,-0.0226 0.5,0 0.75,0 0.0417,0 -0.0955,0.0295 -0.125,0 -0.0112,-0.0112 -0.006,-0.3718 0,-0.375 0.0745,-0.0373 0.16916,0.0202 0.25,0 0.0904,-0.0226 0.15961,-0.1024 0.25,-0.125 0.11332,-0.0283 0.47979,0 0.625,0 0.5,0 1,0 1.5,0 0.45833,0 0.91667,0 1.375,0 0.12999,0 0.65167,-0.0246 0.75,0 0.0904,0.0226 0.16161,0.0955 0.25,0.125 0.0791,0.0263 0.19108,-0.0589 0.25,0 0.0295,0.0295 -0.0373,0.10637 0,0.125 0.14907,0.0745 0.33831,-0.0404 0.5,0 0.18078,0.0452 0.31923,0.20481 0.5,0.25 0.004,0.001 0.37434,-6.6e-4 0.375,0 0.0295,0.0295 -0.0295,0.0955 0,0.125 0.0295,0.0295 0.0855,-0.0132 0.125,0 0.0884,0.0295 0.16667,0.0833 0.25,0.125 0.0833,0.0417 0.17547,0.0691 0.25,0.125 0.0943,0.0707 0.15572,0.17929 0.25,0.25 0.19309,0.14482 0.54185,0.23623 0.75,0.375 0.049,0.0327 0.076,0.0923 0.125,0.125 0.0775,0.0517 0.17547,0.0691 0.25,0.125 0.0943,0.0707 0.15572,0.17929 0.25,0.25 0.0745,0.0559 0.17547,0.0691 0.25,0.125 0.0943,0.0707 0.16667,0.16667 0.25,0.25 0.16667,0.16667 0.35276,0.31595 0.5,0.5 0.0939,0.11731 0.15615,0.25769 0.25,0.375 0.073,0.0913 0.57893,0.53285 0.625,0.625 0.0186,0.0373 -0.0186,0.0877 0,0.125 0.14387,0.28774 0.14663,-0.0545 0.375,0.25 0.0791,0.10541 0.0572,0.26201 0.125,0.375 0.29514,0.4919 0.20486,0.008 0.5,0.5 0.0678,0.11298 0.0661,0.25715 0.125,0.375 0.41457,0.41457 -0.0589,-0.11785 0.125,0.25 0.0264,0.0527 0.10637,0.0691 0.125,0.125 0.0264,0.0791 -0.0202,0.16915 0,0.25 0.0226,0.0904 0.0904,0.16349 0.125,0.25 0.0489,0.12234 0.0833,0.25 0.125,0.375 0.0417,0.125 0.0833,0.25 0.125,0.375 0.0417,0.16667 0.0707,0.33702 0.125,0.5 0.0295,0.0884 0.0955,0.16161 0.125,0.25 0.0132,0.0395 -0.0186,0.0877 0,0.125 0.0264,0.0527 0.0986,0.0723 0.125,0.125 0.0186,0.0373 0,0.0833 0,0.125 0,0.0833 -0.0202,0.16915 0,0.25 0.0226,0.0904 0.0904,0.16349 0.125,0.25 0.14985,0.37463 0.13147,0.46015 0.25,0.875 0.10176,0.35616 0.19418,0.48423 0.25,0.875 0.0177,0.12374 0,0.25 0,0.375 0,0.0833 -0.0202,0.16915 0,0.25 0.0226,0.0904 0.0955,0.16161 0.125,0.25 0.0132,0.0395 0,0.0833 0,0.125 0,0.125 -0.0245,0.25243 0,0.375 0.0183,0.0914 0.10673,0.15864 0.125,0.25 0.0245,0.12257 0,0.25 0,0.375 0,0.41667 0,0.83333 0,1.25 0,1.16667 0,2.33333 0,3.5 0,0.75 0,1.5 0,2.25 0,0.20833 0,0.41667 0,0.625 0,0.125 0.0205,0.2517 0,0.375 -0.0217,0.12997 -0.10636,0.24456 -0.125,0.375 -0.0412,0.28873 0.0572,0.589 0,0.875 -0.0183,0.0914 -0.1024,0.15961 -0.125,0.25 -0.0202,0.0808 0,0.16667 0,0.25 0,0.29167 0,0.58333 0,0.875 0,0.16667 0.0236,0.33501 0,0.5 -0.0186,0.13044 -0.10636,0.24456 -0.125,0.375 -0.0236,0.16499 0.0274,0.3356 0,0.5 -0.0153,0.0919 -0.0955,0.16161 -0.125,0.25 -0.0132,0.0395 0.0132,0.0855 0,0.125 -0.0295,0.0884 -0.1024,0.15961 -0.125,0.25 -0.0694,0.27778 0.10417,0.3125 0,0.625 -0.0396,0.11886 -0.16866,-0.0437 -0.25,-0.125 -0.0417,-0.0417 -0.0723,-0.0986 -0.125,-0.125 -0.038,-0.019 -0.3187,0 -0.375,0 -0.29315,0 0.0589,0.0295 -0.25,-0.125 -0.0745,-0.0373 -0.19107,0.0589 -0.25,0 -0.0295,-0.0295 0.0186,-0.0877 0,-0.125 -0.0264,-0.0527 -0.0986,-0.0723 -0.125,-0.125 -0.0186,-0.0373 0.0295,-0.0955 0,-0.125 -0.0295,-0.0295 -0.0955,0.0295 -0.125,0 -0.0589,-0.0589 0.0373,-0.17547 0,-0.25 -0.0264,-0.0527 -0.0986,-0.0723 -0.125,-0.125 -0.0186,-0.0373 0.0295,-0.0955 0,-0.125 -0.0295,-0.0295 -0.0955,0.0295 -0.125,0 -0.0295,-0.0295 0.0295,-0.0955 0,-0.125 -0.0295,-0.0295 -0.0955,0.0295 -0.125,0 -0.25863,-0.25863 0.39522,0.0101 -0.125,-0.25 -0.0373,-0.0186 -0.0955,0.0295 -0.125,0 -0.0295,-0.0295 0.0295,-0.0955 0,-0.125 -0.0295,-0.0295 -0.0903,0.0231 -0.125,0 -0.19611,-0.13074 -0.31144,-0.35858 -0.5,-0.5 -0.0745,-0.0559 -0.18412,-0.0591 -0.25,-0.125 -0.0295,-0.0295 0.0295,-0.0955 0,-0.125 -0.0589,-0.0589 -0.19107,0.0589 -0.25,0 -0.0295,-0.0295 0.0295,-0.0955 0,-0.125 -0.0295,-0.0295 -0.0955,-0.0295 -0.125,0 -0.0659,0.0659 -0.0733,0.17248 -0.125,0.25 -0.0379,0.0569 -0.4596,0.4798 -0.5,0.5 -0.0373,0.0186 -0.0955,-0.0295 -0.125,0 -0.0295,0.0295 0.0295,0.0955 0,0.125 -0.0295,0.0295 -0.0955,-0.0295 -0.125,0 -0.0295,0.0295 0.0186,0.0877 0,0.125 -0.0527,0.10541 -0.18463,0.15194 -0.25,0.25 -0.0517,0.0775 -0.0591,0.18412 -0.125,0.25 -0.0659,0.0659 -0.17248,0.0733 -0.25,0.125 -0.24763,-0.0125 -0.0591,0.18412 -0.125,0.25 -0.0295,0.0295 -0.0877,-0.0186 -0.125,0 -0.0332,0.0166 -0.3584,0.34181 -0.375,0.375 -0.0186,0.0373 0.0295,0.0955 0,0.125 -0.0295,0.0295 -0.0877,-0.0186 -0.125,0 -0.0527,0.0264 -0.0723,0.0986 -0.125,0.125 -0.0373,0.0186 -0.0877,-0.0186 -0.125,0 -0.0527,0.0264 -0.0723,0.0986 -0.125,0.125 -0.038,0.019 -0.3187,0 -0.375,0 -0.0417,0 -0.0955,0.0295 -0.125,0 -0.0589,-0.0589 0.0373,-0.17547 0,-0.25 -0.0263,-0.0527 -0.0987,-0.0723 -0.125,-0.125 -0.0186,-0.0373 0.0186,-0.0877 0,-0.125 -0.0263,-0.0527 -0.0833,-0.0833 -0.125,-0.125 -0.0417,-0.0417 -0.076,-0.0923 -0.125,-0.125 -0.0775,-0.0517 -0.17248,-0.0733 -0.25,-0.125 -0.24763,0.0125 -0.0591,-0.18412 -0.125,-0.25 -0.0295,-0.0295 -0.0955,0.0295 -0.125,0 -0.0255,-0.0256 0.0248,-0.32544 0,-0.375 -0.0527,-0.10541 -0.19729,-0.14459 -0.25,-0.25 -0.0186,-0.0373 0.0186,-0.0877 0,-0.125 -0.0263,-0.0527 -0.0987,-0.0723 -0.125,-0.125 -0.0186,-0.0373 0.0295,-0.0955 0,-0.125 -0.0295,-0.0295 -0.0877,0.0186 -0.125,0 -0.0527,-0.0263 -0.0723,-0.0987 -0.125,-0.125 -0.0452,-0.0226 -0.53806,0 -0.625,0 -0.25,0 -0.5,0 -0.75,0 -0.0297,0 -0.47198,-0.014 -0.5,0 -0.10541,0.0527 -0.14459,0.19729 -0.25,0.25 -0.0373,0.0186 -0.0877,-0.0186 -0.125,0 -0.11079,0.0554 -0.26121,0.29914 -0.375,0.375 -0.0775,0.0517 -0.17248,0.0733 -0.25,0.125 -0.049,0.0327 -0.0833,0.0833 -0.125,0.125 -0.0833,0.0417 -0.17248,0.0733 -0.25,0.125 -0.049,0.0327 -0.0723,0.0986 -0.125,0.125 -0.0373,0.0186 -0.0955,-0.0295 -0.125,0 -0.0295,0.0295 0.0186,0.0877 0,0.125 -0.0334,0.0668 -0.30919,0.30919 -0.375,0.375 -0.004,0.004 -0.44951,0.47475 -0.5,0.5 -0.0373,0.0186 -0.0833,0 -0.125,0 -0.0417,0 -0.0955,0.0295 -0.125,0 -0.0295,-0.0295 0,-0.0833 0,-0.125 0,-0.25 0,-0.5 0,-0.75 0,-0.0417 0,-0.0833 0,-0.125 0,-0.0417 0.0295,-0.0955 0,-0.125 -0.0295,-0.0295 -0.0955,0.0295 -0.125,0 -0.0295,-0.0295 0.0186,-0.0877 0,-0.125 -0.0263,-0.0527 -0.0987,-0.0723 -0.125,-0.125 -0.0186,-0.0373 0.0186,-0.0877 0,-0.125 -0.0615,-0.123 -0.4385,-0.377 -0.5,-0.5 -0.0373,-0.0745 0.0373,-0.17547 0,-0.25 -0.0717,-0.1433 -0.26081,-0.17388 -0.375,-0.25 -0.24763,0.0125 -0.0591,-0.18412 -0.125,-0.25 -0.005,-0.005 -0.45409,0 -0.5,0 -0.0833,0 -0.16915,-0.0202 -0.25,0 -0.12605,0.0315 -0.49568,0.15301 -0.625,0.25 -0.0943,0.0707 -0.15194,0.18463 -0.25,0.25 -0.0347,0.0231 -0.0877,-0.0186 -0.125,0 -0.0527,0.0263 -0.0723,0.0987 -0.125,0.125 -0.0373,0.0186 -0.0955,-0.0295 -0.125,0 -0.0295,0.0295 0.0186,0.0877 0,0.125 -0.0325,0.065 -0.48928,0.49142 -0.5,0.5 -0.77472,0.61978 -0.0408,-0.0145 -0.625,0.375 -0.049,0.0327 -0.0833,0.0833 -0.125,0.125 -0.0417,0.0417 -0.0987,0.0723 -0.125,0.125 -0.0186,0.0373 0.0295,0.0955 0,0.125 -0.0295,0.0295 -0.0955,-0.0295 -0.125,0 -0.16667,0.16667 0.20833,0.125 -0.125,0.125 -0.0417,0 -0.0955,0.0295 -0.125,0 -0.0439,-0.0439 0.0432,-0.53866 0,-0.625 -0.0615,-0.123 -0.4385,-0.377 -0.5,-0.5 -0.0248,-0.0496 0.0256,-0.34945 0,-0.375 -0.0589,-0.0589 -0.17546,0.0373 -0.25,0 -0.0527,-0.0263 -0.0723,-0.0987 -0.125,-0.125 -0.0106,-0.005 -0.48934,-0.005 -0.5,0 -0.15,0.075 -0.225,0.3 -0.375,0.375 -0.0373,0.0186 -0.0877,-0.0186 -0.125,0 -0.11079,0.0554 -0.26121,0.29914 -0.375,0.375 -0.0775,0.0517 -0.17248,0.0733 -0.25,0.125 -0.049,0.0327 -0.0833,0.0833 -0.125,0.125 -0.0833,0.0417 -0.17248,0.0733 -0.25,0.125 -0.049,0.0327 -0.076,0.0923 -0.125,0.125 -0.0775,0.0517 -0.17248,0.0733 -0.25,0.125 -0.24763,-0.0125 -0.0591,0.18412 -0.125,0.25 -0.0295,0.0295 -0.0955,-0.0295 -0.125,0 -0.33333,0.33333 0.375,-0.0417 -0.125,0.125 -0.90543,0.30181 0.19708,-0.036 -0.375,0.25 -0.0373,0.0186 -0.0955,-0.0295 -0.125,0 -0.0295,0.0295 0.0295,0.0955 0,0.125 -0.0295,0.0295 -0.0833,0 -0.125,0 -0.0417,0 -0.0955,0.0295 -0.125,0 -0.0295,-0.0295 0.0295,-0.0955 0,-0.125 -0.0295,-0.0295 -0.0955,0.0295 -0.125,0 -0.0295,-0.0295 0,-0.0833 0,-0.125 0,-0.0417 0,-0.0833 0,-0.125 0,-0.41667 0,-0.83333 0,-1.25 0,-0.0303 0.004,-0.37098 0,-0.375 -0.0295,-0.0295 -0.0877,0.0186 -0.125,0 -0.0527,-0.0263 -0.0833,-0.0833 -0.125,-0.125 -0.20833,-0.20833 -0.41667,-0.41667 -0.625,-0.625 z"
         style="fill:#00b10d;fill-opacity:1;stroke:#000000;stroke-width:1px;stroke-linecap:butt;stroke-linejoin:miter;stroke-opacity:1" />
      <path
         transform="translate(-29.625,854.73718)"
         d="m 149.375,106.6875 c 0,2.03655 -1.2592,3.6875 -2.8125,3.6875 -1.5533,0 -2.8125,-1.65095 -2.8125,-3.6875 0,-2.03655 1.2592,-3.6875 2.8125,-3.6875 1.5533,0 2.8125,1.65095 2.8125,3.6875 z"
         sodipodi:ry="3.6875"
         sodipodi:rx="2.8125"
         sodipodi:cy="106.6875"
         sodipodi:cx="146.5625"
         id="path3913"
         style="fill:#ffffff;fill-opacity:1;stroke:#000000;stroke-opacity:1"
         sodipodi:type="arc" />
      <path
         transform="translate(0,852.36218)"
         d="m 117.5,110.3125 c 0,0.10355 -0.11193,0.1875 -0.25,0.1875 -0.13807,0 -0.25,-0.084 -0.25,-0.1875 0,-0.10355 0.11193,-0.1875 0.25,-0.1875 0.13807,0 0.25,0.084 0.25,0.1875 z"
         sodipodi:ry="0.1875"
         sodipodi:rx="0.25"
         sodipodi:cy="110.3125"
         sodipodi:cx="117.25"
         id="path3915"
         style="fill:#000000;fill-opacity:1;stroke:#000000;stroke-width:2;stroke-linecap:butt;stroke-linejoin:bevel;stroke-miterlimit:4;stroke-opacity:1;stroke-dasharray:none"
         sodipodi:type="arc" />
      <path
         sodipodi:type="arc"
         style="fill:#ffffff;fill-opacity:1;stroke:#000000;stroke-opacity:1"
         id="path3917"
         sodipodi:cx="146.5625"
         sodipodi:cy="106.6875"
         sodipodi:rx="2.8125"
         sodipodi:ry="3.6875"
         d="m 149.375,106.6875 c 0,2.03655 -1.2592,3.6875 -2.8125,3.6875 -1.5533,0 -2.8125,-1.65095 -2.8125,-3.6875 0,-2.03655 1.2592,-3.6875 2.8125,-3.6875 1.5533,0 2.8125,1.65095 2.8125,3.6875 z"
         transform="translate(-22.375,854.61218)" />
      <path
         sodipodi:type="arc"
         style="fill:#000000;fill-opacity:1;stroke:#000000;stroke-width:2;stroke-linecap:butt;stroke-linejoin:bevel;stroke-miterlimit:4;stroke-opacity:1;stroke-dasharray:none"
         id="path3919"
         sodipodi:cx="117.25"
         sodipodi:cy="110.3125"
         sodipodi:rx="0.25"
         sodipodi:ry="0.1875"
         d="m 117.5,110.3125 c 0,0.10355 -0.11193,0.1875 -0.25,0.1875 -0.13807,0 -0.25,-0.084 -0.25,-0.1875 0,-0.10355 0.11193,-0.1875 0.25,-0.1875 0.13807,0 0.25,0.084 0.25,0.1875 z"
         transform="translate(7.0000001,852.11218)" />
    </g>
  </g>
</svg>
